Coordinates
version=1
nRows=18
nColumns=22
inDegrees=yes

Units are S.I. units (second, meters, Newtons, ...)
If the header above contains a line with 'inDegrees', this indicates whether rotational values are in degrees (yes) or radians (no).

endheader
time	pelvis_tilt	pelvis_list	pelvis_rotation	pelvis_tx	pelvis_ty	pelvis_tz	hip_flexion_r	hip_adduction_r	hip_rotation_r	knee_angle_r	ankle_angle_r	subtalar_angle_r	hip_flexion_l	hip_adduction_l	hip_rotation_l	knee_angle_l	ankle_angle_l	subtalar_angle_l	lumbar_extension	lumbar_bending	lumbar_rotation
      2.83000000	     -1.04192320	     -3.13855979	     -1.50357296	      0.01562976	      0.91016173	      0.08429863	     -1.37875968	      6.20810096	     -2.13948784	    -25.97340806	     21.56184315	      0.70267338	     35.96354117	     -8.03149506	    -11.58914172	    -23.44436994	     -9.12666825	     -5.19528624	    -17.19203572	      2.02074125	      0.15067153
      2.84000000	     -0.97027077	     -3.11176633	     -1.38120802	      0.00986267	      0.91206272	      0.08521695	     -1.19598617	      6.24621940	     -2.33280972	    -25.66376908	     21.14918172	      0.69317828	     35.73613348	     -7.97242815	    -11.28316705	    -23.97666782	     -7.45047547	     -5.00353315	    -17.26622097	      2.05540761	      0.04840170
      2.85000000	     -0.91658771	     -3.10321573	     -1.26801005	      0.00429411	      0.91403649	      0.08609194	     -1.02788320	      6.30116716	     -2.48439038	    -25.30608671	     20.64219484	      0.74946501	     35.49742938	     -7.90889555	    -10.84879224	    -24.63818857	     -5.98114438	     -4.74903329	    -17.30765503	      2.11968936	     -0.06300924
      2.86000000	     -0.87327674	     -3.06745918	     -1.20756359	     -0.00116912	      0.91602364	      0.08693303	     -0.80618009	      6.30250858	     -2.65199934	    -25.04118259	     20.15390880	      0.83135129	     35.22342869	     -7.81556810	    -10.32236292	    -25.40759023	     -4.69613016	     -4.50072531	    -17.33927597	      2.15734731	     -0.09289756
      2.87000000	     -0.86733979	     -3.02135110	     -1.16241169	     -0.00651412	      0.91798135	      0.08772958	     -0.55408157	      6.28902900	     -2.79567046	    -24.76994905	     19.58842741	      0.98062473	     34.94327762	     -7.68612122	     -9.66223899	    -26.25371368	     -3.61760316	     -4.23684044	    -17.32662321	      2.19302560	     -0.12774653
      2.88000000	     -0.86104133	     -2.95175622	     -1.15581723	     -0.01171564	      0.91989562	      0.08849999	     -0.30304255	      6.23815339	     -2.94202038	    -24.52128384	     19.11594413	      1.07787652	     34.61986129	     -7.53565368	     -8.96851481	    -27.19367586	     -2.62207535	     -4.06164535	    -17.30593536	      2.20519222	     -0.11464100
      2.89000000	     -0.87609090	     -2.87002297	     -1.17086001	     -0.01680010	      0.92172398	      0.08923370	     -0.04098820	      6.17244352	     -3.07104391	    -24.26912363	     18.63265121	      1.17447885	     34.27043830	     -7.35672742	     -8.19209364	    -28.18854029	     -1.71984900	     -3.91270566	    -17.25532739	      2.21184365	     -0.08266611
      2.90000000	     -0.90289501	     -2.77740160	     -1.20922180	     -0.02176142	      0.92344339	      0.08992785	      0.21574570	      6.09346002	     -3.18270027	    -24.00439054	     18.18930994	      1.24884910	     33.88574647	     -7.15850230	     -7.37429771	    -29.23467501	     -0.85280239	     -3.77733711	    -17.18381061	      2.21520977	     -0.02844822
      2.91000000	     -0.94193788	     -2.68924525	     -1.26114267	     -0.02660567	      0.92502928	      0.09058335	      0.45729586	      6.02227330	     -3.28054487	    -23.70825080	     17.78567910	      1.30493363	     33.47039976	     -6.95189165	     -6.51060974	    -30.32124890	     -0.02568256	     -3.63100896	    -17.08914391	      2.23053244	      0.06097328
      2.92000000	     -0.97759264	     -2.57526018	     -1.34295091	     -0.03131227	      0.92647228	      0.09121925	      0.68244454	      5.92478206	     -3.35180044	    -23.41499612	     17.44858728	      1.30751243	     32.99938983	     -6.73632605	     -5.72350529	    -31.44622720	      0.85258757	     -3.47970858	    -16.98565227	      2.22403782	      0.12642301
      2.93000000	     -1.02506253	     -2.50146030	     -1.41196220	     -0.03589308	      0.92775084	      0.09179169	      0.86708342	      5.87727425	     -3.43376107	    -23.04277106	     17.13396259	      1.28898437	     32.50485152	     -6.54402958	     -4.90023404	    -32.59952151	      1.70213720	     -3.27464996	    -16.85492830	      2.27468688	      0.23175813
      2.94000000	     -1.06904789	     -2.41651240	     -1.51110291	     -0.04037059	      0.92886145	      0.09235020	      1.04653027	      5.82008803	     -3.48688093	    -22.69175722	     16.87752755	      1.24257034	     31.95308431	     -6.36825885	     -4.19349547	    -33.76765205	      2.60843035	     -3.05063981	    -16.71943494	      2.32017699	      0.31406268
      2.95000000	     -1.11461306	     -2.36876540	     -1.60468802	     -0.04471882	      0.92980827	      0.09288849	      1.18542937	      5.81145078	     -3.53898401	    -22.28450725	     16.64244875	      1.16053930	     31.36110747	     -6.24288053	     -3.55313636	    -34.94578364	      3.49970899	     -2.77583538	    -16.56422325	      2.40999635	      0.41697918
      2.96000000	     -1.15966269	     -2.33482381	     -1.71868387	     -0.04898121	      0.93058451	      0.09342680	      1.31799842	      5.82115276	     -3.57019725	    -21.88574225	     16.45008665	      1.05926282	     30.71825213	     -6.16875428	     -3.05241429	    -36.12044153	      4.41378695	     -2.51296531	    -16.40297608	      2.51911634	      0.51346599
      2.97000000	     -1.20529009	     -2.33017906	     -1.84293695	     -0.05315245	      0.93119831	      0.09397188	      1.43820985	      5.86719566	     -3.58493842	    -21.48057611	     16.27455964	      0.93004543	     30.02752737	     -6.16152113	     -2.68326091	    -37.28290357	      5.32398776	     -2.27598179	    -16.23132845	      2.66180902	      0.60965474
      2.98000000	     -1.25523914	     -2.35709154	     -1.97904287	     -0.05723816	      0.93164592	      0.09453106	      1.55503815	      5.95014511	     -3.58723968	    -21.07762919	     16.12240744	      0.78927209	     29.29467487	     -6.23040154	     -2.45646200	    -38.43018680	      6.22479845	     -2.10875308	    -16.04601344	      2.83929908	      0.70524147
      2.99000000	     -1.30801779	     -2.41969325	     -2.12371880	     -0.06124936	      0.93194159	      0.09511653	      1.67163438	      6.07567228	     -3.57437219	    -20.68374986	     15.97449795	      0.62634500	     28.51917775	     -6.38103335	     -2.36727433	    -39.55565225	      7.10373173	     -2.02152915	    -15.85059890	      3.05351771	      0.79235632
      3.00000000	     -1.36746798	     -2.51596214	     -2.27876572	     -0.06518594	      0.93209224	      0.09572165	      1.79622092	      6.23886090	     -3.54647554	    -20.30706614	     15.82895946	      0.44881117	     27.70256996	     -6.60920040	     -2.40634185	    -40.65029748	      7.96241354	     -2.02094724	    -15.64017709	      3.30388499	      0.86956343
